<?xml version="1.0" encoding="utf-8"?>
<!-- Generator: Adobe Illustrator 25.0.0, SVG Export Plug-In . SVG Version: 6.00 Build 0)  -->
<svg version="1.1" id="Layer_1" xmlns="http://www.w3.org/2000/svg" xmlns:xlink="http://www.w3.org/1999/xlink" x="0px" y="0px"
	 viewBox="0 0 54 54" style="enable-background:new 0 0 54 54;" xml:space="preserve">
<style type="text/css">
	.st0{fill:#FFFFFF;}
</style>
<path class="st0" d="M46.1,7.9C35.5-2.6,18.5-2.6,7.9,7.9s-10.5,27.6,0,38.2s27.6,10.5,38.2,0S56.6,18.5,46.1,7.9z M44.1,44.1
	c-0.4,0.4-0.9,0.9-1.3,1.2c-0.2-0.2-0.3-0.5-0.5-0.7c-0.2-0.4-0.5-0.8-0.7-1.2c-0.2-0.3-0.4-0.6-0.5-0.9c-0.3-0.6-0.6-1.1-1-1.7
	c-0.2-0.3-0.3-0.6-0.5-0.9c-0.2-0.4-0.4-0.7-0.6-1.1c-0.1-0.1-0.1-0.2-0.2-0.3c-0.1-0.2-0.2-0.4-0.3-0.6c-0.1-0.2-0.2-0.5-0.3-0.7
	c-0.1-0.3-0.2-0.5-0.4-0.7c-0.1-0.1-0.1-0.2-0.1-0.4c0-0.1,0-0.2,0-0.4c0-0.2,0-0.4,0-0.6c0-0.2,0.1-0.4,0.2-0.5
	c0.1-0.1,0.2-0.2,0.3-0.3c0.1-0.1,0.2-0.2,0.3-0.2c0.1,0,0.2-0.1,0.3-0.2c0,0,0,0,0,0c-0.1-0.1,0.1-0.2,0.1-0.3s0.2-0.2,0.1-0.3
	c0,0,0,0,0,0c0.1-0.1,0.1-0.2,0.3-0.2c0.1-0.1,0.3-0.2,0.4-0.3c0.1-0.1,0.2-0.1,0.3-0.1c0.3,0,0.6-0.2,0.7-0.5
	c0.1-0.2,0.2-0.3,0.3-0.5c0,0,0-0.1,0.1-0.1c0-0.1,0-0.1,0.1-0.2c0.1-0.1,0.1-0.2,0.2-0.3c0.1-0.1,0.1-0.2,0.1-0.3
	c-0.1-0.1-0.1-0.2-0.2-0.3c0,0.1,0,0.1,0,0.1c0,0.1,0,0.1-0.1,0.1c0,0-0.1,0-0.1,0c0,0,0-0.1,0.1-0.1c0.1-0.1,0.1-0.1,0-0.2
	c0,0,0-0.1,0-0.1c0.1,0,0.1,0,0.2,0c0.1,0,0.2-0.1,0.2-0.2c0-0.1,0-0.2,0.1-0.3c0-0.1,0-0.2,0-0.4c0.1-0.2,0-0.2,0.2-0.2
	c0.2,0,0.3-0.1,0.4-0.2c0-0.1,0.1-0.1,0.1-0.1c0.1-0.1,0.1-0.2,0.1-0.3c0-0.1,0-0.2,0-0.2l0.1,0.1c0-0.1,0-0.2,0-0.4
	c0-0.1,0-0.2,0.1-0.2c0.2-0.1,0.2-0.2,0.3-0.4c0-0.1,0-0.1,0-0.1c0,0-0.1,0-0.1-0.1c0.1,0,0.1-0.1,0.2-0.1c0.1-0.1,0.2-0.3,0.1-0.4
	c0,0,0,0,0-0.1c-0.1,0-0.1-0.1,0-0.1c0-0.1,0-0.1,0.1-0.2c0-0.1,0.1-0.1,0-0.2c0-0.1,0-0.2-0.1-0.2c-0.1-0.1-0.1-0.2,0-0.3
	c0-0.1,0-0.2,0-0.2c-0.1-0.2-0.1-0.4,0-0.5c0.1-0.1,0.1-0.2,0.2-0.4c0.2-0.5,0.5-0.9,0.7-1.4c0.1-0.3,0.3-0.6,0.4-0.9
	c0.1-0.3,0.1-0.6,0.2-0.8c0.1-0.5,0.2-1,0.2-1.4c0.1-0.6,0.1-1.2,0.1-1.8c0-0.5-0.1-1-0.2-1.5c-0.2-0.5-0.3-1-0.5-1.5
	c-0.2-0.6-0.5-1.1-0.9-1.6c-0.1-0.1-0.1-0.2-0.2-0.3c-0.1-0.2-0.2-0.4-0.3-0.6c-0.1-0.1-0.1-0.3-0.2-0.4c-0.2-0.5-0.4-0.9-0.6-1.4
	c-0.1-0.2-0.2-0.3-0.4-0.3c-0.1,0-0.2,0-0.2-0.1c-0.2-0.1-0.3-0.3-0.5-0.4c-0.5-0.3-0.9-0.5-1.4-0.7c-0.5-0.2-0.9-0.5-1.5-0.6
	c0,0-0.1,0-0.1-0.1c-0.3-0.1-0.5-0.3-0.8-0.4c-0.5-0.3-1.1-0.5-1.7-0.7c-0.4-0.1-0.8-0.1-1.2,0c0,0-1.7,0.5-1.7,0.5l0,0
	c-0.2,0.1-0.5,0.2-0.7,0.3c-0.1,0.1-0.3,0.1-0.4,0.2c-0.5,0.2-1,0.5-1.1,0.8l-1.4,0.8c0,0,0,0,0,0c-0.3,0.2-0.6,0.4-0.9,0.6
	c-0.2,0.1-0.2,0.2-0.4,0c-0.4-0.2-0.7-0.5-1.1-0.7C26,10,25.8,9.9,25.7,9.8c-0.4-0.2-0.8-0.5-1.1-0.7c-0.5-0.3-0.9-0.6-1.4-0.9
	c-0.4-0.3-0.9-0.6-1.3-0.8c-0.6-0.3-1.3-0.3-1.9,0c-0.6,0.3-1.2,0.6-1.7,1.1c-0.5,0.5-0.9,1.1-1.1,1.8c-0.2,0.5-0.3,1-0.4,1.5
	c-0.3,1.3,0.1,2.5,1.1,3.4c0.5,0.5,1.1,0.8,1.7,1.2c0.9,0.5,1.8,0.9,2.7,1.3c0.2,0.1,0.2,0.1,0.1,0.3c0,0.1,0,0.1-0.1,0.1
	c-0.2-0.1-0.5-0.1-0.7-0.2c-0.6-0.1-1.2-0.1-1.8,0c-0.1,0-0.2,0.1-0.2,0.2c0,0.2-0.1,0.5-0.1,0.7c0,0,0,0.1,0,0.1
	c0.1,0.2,0.1,0.4,0.1,0.7c0,0.4,0,0.7,0,1.1c0,0.4,0,0.9,0,1.3c0.1,0.6,0.5,1,1.1,1.2c0.1,0,0.3,0.1,0.4,0.1c0.1,0,0.1,0.1,0.1,0.2
	c0,0,0,0,0,0.1c-0.1,0.3-0.2,0.6-0.3,0.9c-0.1,0.4-0.2,0.9-0.3,1.3c-0.1,0.9-0.2,1.9-0.2,2.8c0,0.3,0,0.7,0.1,1c0,0.3,0,0.7-0.1,1
	c-0.1,0.3-0.2,0.5-0.3,0.8c0,0,0,0.1,0,0.1c0,0.2-0.2,0.4,0,0.7c0,0.1,0,0.1,0,0.2c0,0,0,0.1,0,0.1c0,0,0,0,0,0c0.1,0,0.1,0,0.1,0
	c0,0.1,0,0.1,0,0.2c0.1,0,0.2,0,0.2,0.1c0,0.1,0.1,0.2,0.2,0.2c0.1,0.1,0.2,0.2,0.3,0.3c0,0,0.1,0.1,0.1,0l0.1-0.1
	c0,0.1,0.1,0.2,0.2,0.2c0.1,0,0.1,0.1,0.2,0.1c0,0,0.1,0.1,0.1,0.1c0.1,0,0.2,0.1,0.3,0.1c0.2,0.1,0.3,0.2,0.5,0.3
	c0.1,0.1,0.1,0.1,0.2,0.1c0.1,0,0.1,0.1,0.2,0.1c0,0,0,0.1,0,0.1c0,0-0.1,0.1-0.1,0.1c-0.1,0-0.2,0-0.3,0c-0.3,0-0.6,0-0.9,0.1
	c-0.2,0-0.4,0.1-0.6,0.1c-0.2,0-0.5,0.1-0.7,0.2c-0.3,0.1-0.6,0.3-1,0.4c-0.4,0.2-0.9,0.4-1.3,0.6c-0.6,0.4-1.2,0.8-1.6,1.4
	c-0.2,0.2-0.3,0.5-0.5,0.7c-0.3,0.4-0.5,0.8-0.8,1.2c-0.1,0.2-0.2,0.4-0.3,0.6c-0.2,0.4-0.3,0.7-0.5,1.1c-0.1,0.3-0.2,0.6-0.3,0.9
	c-0.2,0.4-0.3,0.8-0.4,1.2c0,0.2-0.1,0.3-0.2,0.4c-0.1,0.3-0.3,0.6-0.4,0.9c0,0.1-0.1,0.3-0.1,0.4c-0.1,0.3-0.2,0.6-0.2,0.9
	c0,0.1,0,0.2-0.1,0.3c-0.1,0.2-0.1,0.3-0.2,0.5c-0.9-0.7-1.7-1.4-2.5-2.2C0.4,34.7,0.3,19.4,9.8,9.9S34.6,0.3,44,9.8
	c0,0,0.1,0.1,0.1,0.1C53.6,19.3,53.6,34.7,44.1,44.1C44.1,44.1,44.1,44.1,44.1,44.1L44.1,44.1z"/>
</svg>
