<?xml version="1.0" standalone="no"?>
<!DOCTYPE svg PUBLIC "-//W3C//DTD SVG 20010904//EN"
 "http://www.w3.org/TR/2001/REC-SVG-20010904/DTD/svg10.dtd">
<svg version="1.0" xmlns="http://www.w3.org/2000/svg"
 width="700.000000pt" height="700.000000pt" viewBox="0 0 700.000000 700.000000"
 preserveAspectRatio="xMidYMid meet">
<metadata>
Created by potrace 1.14, written by Peter Selinger 2001-2017
</metadata>
<g transform="translate(0.000000,700.000000) scale(0.100000,-0.100000)"
fill="#000000" stroke="none">
<path d="M3447 6964 c-1 -1 -56 -4 -122 -8 -66 -3 -131 -8 -145 -10 -14 -3
-47 -7 -75 -10 -89 -10 -129 -16 -185 -27 -30 -6 -68 -13 -85 -15 -141 -24
-554 -153 -660 -206 -22 -12 -40 -19 -40 -17 0 8 -334 -164 -416 -214 -115
-71 -267 -178 -359 -252 -41 -33 -86 -70 -100 -80 -64 -51 -374 -371 -447
-462 -267 -334 -463 -691 -594 -1085 -42 -126 -99 -336 -114 -418 -21 -120
-34 -204 -40 -255 -4 -33 -9 -71 -11 -85 -22 -135 -21 -559 1 -720 3 -19 8
-60 10 -90 3 -30 8 -62 10 -70 2 -8 7 -33 10 -55 3 -23 7 -52 10 -65 17 -88
29 -144 47 -210 11 -41 23 -84 25 -95 27 -107 121 -367 182 -500 197 -429 475
-812 806 -1109 71 -64 274 -219 363 -278 48 -31 92 -62 99 -68 7 -5 14 -10 17
-10 2 0 40 -21 83 -46 312 -185 773 -354 1113 -409 19 -3 49 -8 65 -12 17 -3
39 -7 50 -8 22 -3 101 -13 155 -20 168 -22 589 -22 720 -1 14 3 48 7 75 10
101 11 143 18 282 47 652 134 1238 445 1722 913 105 102 274 291 341 381 25
33 47 62 51 65 17 16 216 330 215 340 -1 3 9 19 20 35 93 131 266 566 329 825
43 180 66 301 80 425 4 33 9 74 11 90 21 170 21 503 0 710 -7 67 -18 143 -26
195 -5 30 -12 73 -16 94 -10 66 -71 306 -104 411 -82 258 -214 550 -336 743
-19 29 -34 54 -34 56 0 5 -100 154 -135 201 -243 327 -489 562 -822 784 -67
44 -125 81 -129 81 -4 0 -15 7 -24 15 -27 24 -322 172 -442 221 -237 97 -470
166 -703 208 -16 3 -41 8 -55 11 -14 3 -43 8 -65 10 -22 3 -56 7 -75 10 -121
17 -268 27 -423 29 -60 0 -109 0 -110 0z m348 -358 c28 -3 75 -8 105 -12 30
-3 62 -7 70 -9 8 -2 38 -7 65 -11 61 -8 54 -6 197 -38 369 -83 748 -249 1068
-467 74 -50 66 -45 185 -139 532 -421 920 -1044 1079 -1730 78 -336 98 -732
55 -1075 -5 -44 -12 -97 -15 -118 -8 -59 -52 -265 -70 -327 -9 -30 -18 -62
-19 -70 -6 -29 -72 -215 -105 -298 -48 -120 -166 -350 -241 -470 -67 -108
-199 -289 -283 -389 -57 -67 -324 -333 -334 -333 -4 0 -14 12 -23 28 -9 15
-35 57 -58 94 -157 256 -451 801 -501 929 -12 30 -33 71 -48 93 -24 35 -26 46
-24 120 2 44 5 90 9 101 7 26 61 83 94 100 26 14 69 82 69 109 0 19 102 86
131 86 39 0 75 39 124 134 44 86 45 90 29 114 -13 19 -18 22 -25 11 -4 -7 -11
-10 -15 -6 -4 4 -3 12 3 18 6 6 9 17 7 23 -2 6 5 12 17 13 31 3 36 11 44 67 7
58 12 69 30 62 31 -12 103 58 91 89 -3 8 -1 17 5 20 5 4 8 18 6 33 -3 19 4 35
25 55 30 30 36 47 16 47 -6 0 -2 10 11 21 16 15 21 27 16 43 -4 11 -7 29 -6
39 1 9 1 25 2 35 0 9 -5 52 -12 94 -12 75 -11 78 16 135 105 219 127 272 150
357 13 53 27 115 30 139 3 23 8 58 11 77 13 81 12 289 -2 360 -29 152 -114
372 -188 485 -36 55 -85 152 -144 290 -31 70 -44 90 -64 96 -13 3 -47 23 -75
43 -51 37 -295 157 -387 191 -27 10 -74 32 -105 49 -138 78 -253 115 -341 110
-52 -2 -169 -32 -269 -68 -74 -27 -241 -119 -285 -156 -22 -20 -77 -56 -121
-80 -44 -24 -105 -60 -135 -80 -102 -68 -81 -71 -247 34 -139 87 -268 170
-424 272 -93 60 -179 104 -220 111 -112 21 -203 -7 -331 -101 -212 -155 -338
-509 -260 -728 62 -176 229 -302 644 -488 77 -35 92 -48 82 -74 -4 -11 -16
-10 -67 6 -68 21 -193 30 -257 18 -22 -4 -43 -9 -45 -11 -2 -3 -7 -27 -10 -54
-4 -28 -9 -52 -11 -54 -2 -2 2 -13 8 -25 8 -14 11 -83 10 -203 -1 -192 4 -226
40 -278 19 -29 92 -75 118 -75 5 0 20 -4 34 -10 25 -9 25 -10 10 -52 -20 -58
-51 -183 -59 -238 -3 -25 -8 -56 -10 -70 -4 -27 -15 -128 -21 -194 -5 -57 -5
-212 1 -263 4 -42 1 -58 -48 -222 -24 -79 -25 -86 -10 -134 9 -31 30 -66 54
-91 21 -23 39 -44 39 -48 0 -4 7 -5 15 -2 8 4 15 1 15 -5 0 -6 6 -11 14 -11 8
0 16 -4 18 -8 2 -5 42 -28 91 -52 48 -24 87 -50 87 -57 0 -9 -18 -13 -57 -14
-32 -1 -69 -2 -83 -4 -95 -10 -140 -20 -189 -42 -31 -13 -76 -31 -101 -40 -78
-26 -213 -101 -272 -150 -183 -153 -353 -455 -459 -813 -12 -41 -30 -91 -40
-112 -23 -45 -79 -220 -85 -260 -4 -36 -26 -98 -34 -98 -27 0 -345 293 -440
405 -282 332 -473 663 -609 1058 -39 114 -103 359 -115 442 -4 22 -11 65 -16
95 -47 272 -45 701 4 975 65 356 142 597 286 890 244 495 611 914 1070 1222
84 56 320 195 320 188 0 -2 25 9 55 26 80 44 310 134 455 179 116 35 338 88
400 95 32 3 130 16 151 20 8 2 55 6 105 10 49 4 90 8 91 9 5 5 390 -3 438 -8z"/>
</g>
</svg>
